<mxfile host="app.diagrams.net" agent="Mozilla/5.0 (Windows NT 10.0; Win64; x64) AppleWebKit/537.36 (KHTML, like Gecko) Chrome/135.0.0.0 Safari/537.36" border="50" scale="3" compressed="false" locked="false" version="26.2.14">
  <diagram name="Blank" id="YmL12bMKpDGza6XwsDPr">
    <mxGraphModel dx="2626" dy="823" grid="0" gridSize="10" guides="1" tooltips="1" connect="1" arrows="1" fold="1" page="0" pageScale="1" pageWidth="827" pageHeight="1169" background="none" math="1" shadow="0">
      <root>
        <mxCell id="X5NqExCQtvZxIxQ7pmgY-0" />
        <mxCell id="1" parent="X5NqExCQtvZxIxQ7pmgY-0" />
        <mxCell id="Gr0Zq-AI6Quabplr0KPa-106" style="edgeStyle=none;curved=1;html=1;strokeWidth=2;fontSize=12;endArrow=none;endFill=0;rounded=0;fontColor=#0A3DA3;strokeColor=#0A3DA3;startSize=8;endSize=8;" parent="1" source="Gr0Zq-AI6Quabplr0KPa-107" target="Gr0Zq-AI6Quabplr0KPa-105" edge="1">
          <mxGeometry relative="1" as="geometry">
            <mxPoint x="-348" y="468" as="targetPoint" />
          </mxGeometry>
        </mxCell>
        <mxCell id="Gr0Zq-AI6Quabplr0KPa-107" value="Mongo Database" style="image;html=1;image=img/lib/clip_art/networking/Switch_128x128.png;strokeColor=none;strokeWidth=2;fillColor=#EDF5FF;fontSize=12;fontColor=#0A3DA3;fontStyle=1;labelBackgroundColor=none;" parent="1" vertex="1">
          <mxGeometry x="-515" y="637" width="80" height="53" as="geometry" />
        </mxCell>
        <object label="User 1" placeholders="1" id="Gr0Zq-AI6Quabplr0KPa-103">
          <mxCell style="image;html=1;image=img/lib/clip_art/computers/Laptop_128x128.png;fontFamily=Helvetica;fontSize=12;fontColor=#0A3DA3;align=center;strokeWidth=2;fillColor=#EDF5FF;fontStyle=1;verticalAlign=bottom;strokeColor=none;labelBackgroundColor=#EDF5FF;labelBorderColor=none;labelPosition=center;verticalLabelPosition=top;" parent="1" vertex="1">
            <mxGeometry x="-494" y="335" width="80" height="80" as="geometry" />
          </mxCell>
        </object>
        <mxCell id="Gr0Zq-AI6Quabplr0KPa-100" style="edgeStyle=orthogonalEdgeStyle;html=1;endArrow=none;endFill=0;strokeWidth=2;fontSize=12;fontColor=#0A3DA3;strokeColor=#0A3DA3;rounded=0;startSize=8;endSize=8;curved=0;" parent="1" source="Gr0Zq-AI6Quabplr0KPa-103" target="Gr0Zq-AI6Quabplr0KPa-105" edge="1">
          <mxGeometry relative="1" as="geometry">
            <mxPoint x="-582" y="457" as="targetPoint" />
            <Array as="points">
              <mxPoint x="-491" y="518" />
            </Array>
          </mxGeometry>
        </mxCell>
        <object label="User 2" placeholders="1" id="Gr0Zq-AI6Quabplr0KPa-102">
          <mxCell style="image;html=1;image=img/lib/clip_art/computers/Monitor_Tower_128x128.png;fontFamily=Helvetica;fontSize=12;fontColor=#0A3DA3;align=center;strokeWidth=2;fillColor=#EDF5FF;fontStyle=1;verticalAlign=bottom;strokeColor=none;labelBackgroundColor=#EDF5FF;labelBorderColor=none;labelPosition=center;verticalLabelPosition=top;" parent="1" vertex="1">
            <mxGeometry x="-815" y="325" width="115" height="79" as="geometry" />
          </mxCell>
        </object>
        <mxCell id="Gr0Zq-AI6Quabplr0KPa-99" value="" style="edgeStyle=orthogonalEdgeStyle;rounded=0;html=1;endArrow=none;endFill=0;strokeColor=#0A3DA3;strokeWidth=2;fontSize=12;fontColor=#0A3DA3;startSize=8;endSize=8;curved=1;" parent="1" source="Gr0Zq-AI6Quabplr0KPa-105" target="Gr0Zq-AI6Quabplr0KPa-102" edge="1">
          <mxGeometry relative="1" as="geometry" />
        </mxCell>
        <mxCell id="Gr0Zq-AI6Quabplr0KPa-105" value="Server&lt;div&gt;&lt;br&gt;&lt;/div&gt;" style="image;html=1;image=img/lib/clip_art/networking/Switch_128x128.png;strokeColor=none;strokeWidth=2;fillColor=#EDF5FF;fontSize=12;labelBackgroundColor=#EDF5FF;fontStyle=1;fontColor=#0A3DA3;" parent="1" vertex="1">
          <mxGeometry x="-668" y="497" width="80" height="42" as="geometry" />
        </mxCell>
      </root>
    </mxGraphModel>
  </diagram>
</mxfile>
